<?xml version="1.0" encoding="utf-8"?>
<!-- Generator: Adobe Illustrator 16.0.0, SVG Export Plug-In . SVG Version: 6.00 Build 0)  -->
<!DOCTYPE svg PUBLIC "-//W3C//DTD SVG 1.1//EN" "http://www.w3.org/Graphics/SVG/1.1/DTD/svg11.dtd">
<svg version="1.1" id="Layer_1" xmlns="http://www.w3.org/2000/svg" xmlns:xlink="http://www.w3.org/1999/xlink" x="0px" y="0px"
	 width="26.88px" height="27.84px" viewBox="0 0 26.88 27.84" enable-background="new 0 0 26.88 27.84" xml:space="preserve">
<g>
	<g>
		<defs>
			<rect id="SVGID_1_" width="26.88" height="27.84"/>
		</defs>
		<clipPath id="SVGID_2_">
			<use xlink:href="#SVGID_1_"  overflow="visible"/>
		</clipPath>
		<path clip-path="url(#SVGID_2_)" fill="#F2F2F2" d="M21.934,26.879h-5.77c-0.223,0-0.402-0.18-0.402-0.399v-8.144H10.27v8.144
			c0,0.22-0.18,0.399-0.403,0.399H4.094c-0.219,0-0.399-0.18-0.399-0.399V13.195H0.398c-0.164,0-0.308-0.103-0.371-0.254
			c-0.058-0.152-0.019-0.324,0.098-0.437L12.738,0.589c0.157-0.144,0.395-0.144,0.551,0l12.617,11.915
			c0.121,0.113,0.155,0.285,0.098,0.437c-0.063,0.152-0.207,0.254-0.371,0.254h-3.297v13.284
			C22.336,26.699,22.156,26.879,21.934,26.879L21.934,26.879z M16.562,26.082h4.974V12.793c0-0.219,0.18-0.399,0.398-0.399h2.691
			L13.016,1.429L1.406,12.394h2.688c0.222,0,0.402,0.18,0.402,0.399v13.289h4.973v-8.146c0-0.223,0.179-0.401,0.398-0.401h6.297
			c0.219,0,0.397,0.179,0.397,0.401V26.082z M16.562,26.082"/>
	</g>
</g>
</svg>
