<?xml version="1.0" encoding="utf-8"?>
<!-- Generator: Adobe Illustrator 16.0.0, SVG Export Plug-In . SVG Version: 6.00 Build 0)  -->
<!DOCTYPE svg PUBLIC "-//W3C//DTD SVG 1.1//EN" "http://www.w3.org/Graphics/SVG/1.1/DTD/svg11.dtd">
<svg version="1.1" id="Layer_1" xmlns="http://www.w3.org/2000/svg" xmlns:xlink="http://www.w3.org/1999/xlink" x="0px" y="0px"
	 width="266.88px" height="210.72px" viewBox="0 0 266.88 210.72" enable-background="new 0 0 266.88 210.72" xml:space="preserve">
<g>
	<g>
		<defs>
			<rect id="SVGID_1_" width="266.88" height="210.72"/>
		</defs>
		<clipPath id="SVGID_2_">
			<use xlink:href="#SVGID_1_"  overflow="visible"/>
		</clipPath>
		<path clip-path="url(#SVGID_2_)" fill="#F2F2F2" d="M264.75,143.11l-42.336-31.926v-12.82c0-1.758-0.824-3.41-2.227-4.469
			L136.863,31.06c-2-1.507-4.75-1.507-6.746,0L46.789,93.896c-1.402,1.059-2.227,2.711-2.227,4.469v12.82L2.23,143.11
			C0.824,144.17,0,145.826,0,147.584v56.574c0,3.094,2.508,5.602,5.602,5.602h255.777c3.094,0,5.598-2.508,5.598-5.602v-56.574
			C266.977,145.826,266.152,144.17,264.75,143.11L264.75,143.11z M139.543,198.56h-12.109V170.33h12.109V198.56z M150.746,198.56
			v-33.828c0-3.093-2.508-5.601-5.602-5.601h-23.313c-3.09,0-5.598,2.508-5.598,5.601v33.828H55.762v-97.402l77.726-58.613
			l77.727,58.613v97.402H150.746z M11.199,150.373l33.363-25.16v73.347H11.199V150.373z M255.777,198.56h-33.363v-73.347
			l33.363,25.16V198.56z M255.777,198.56"/>
		<path clip-path="url(#SVGID_2_)" fill="#F2F2F2" d="M8.973,107.106l124.515-93.897l124.52,93.897
			c1.008,0.763,2.191,1.129,3.367,1.129c1.695,0,3.375-0.769,4.473-2.226c1.863-2.469,1.371-5.985-1.098-7.844L136.863,1.725
			c-2-1.504-4.75-1.504-6.746,0L2.23,98.166c-2.472,1.859-2.964,5.371-1.101,7.84C2.992,108.478,6.504,108.971,8.973,107.106
			L8.973,107.106z M8.973,107.106"/>
	</g>
</g>
</svg>
